<?xml version="1.0" standalone="no"?>
<!DOCTYPE svg PUBLIC "-//W3C//DTD SVG 20010904//EN"
 "http://www.w3.org/TR/2001/REC-SVG-20010904/DTD/svg10.dtd">
<svg version="1.0" xmlns="http://www.w3.org/2000/svg"
 width="6425.000000pt" height="2488.000000pt" viewBox="0 0 6425.000000 2488.000000"
 preserveAspectRatio="xMidYMid meet">

<g transform="translate(0.000000,2488.000000) scale(0.100000,-0.100000)"
fill="#000000" stroke="none">
<path d="M8130 22295 c-264 -64 -411 -280 -344 -505 21 -70 54 -118 111 -162
79 -59 143 -85 325 -133 268 -70 324 -107 315 -206 -8 -98 -85 -151 -225 -157
-94 -5 -165 13 -221 55 -35 27 -70 92 -71 131 0 22 -1 22 -145 22 l-145 0 6
-42 c20 -150 78 -248 191 -324 94 -64 195 -88 368 -88 156 0 225 14 328 65
239 121 288 436 95 614 -79 73 -153 106 -349 155 -189 47 -257 80 -283 133
-20 43 -20 68 -2 111 64 154 402 134 444 -27 l8 -32 142 -3 c88 -1 142 1 142
7 0 6 -5 34 -11 63 -34 160 -161 280 -341 323 -78 18 -263 18 -338 0z"/>
<path d="M28476 22294 c-95 -23 -185 -72 -247 -133 -78 -79 -102 -134 -107
-247 -6 -127 13 -180 89 -257 75 -75 161 -115 347 -161 240 -61 302 -93 322
-165 13 -50 -2 -99 -42 -139 -47 -44 -105 -62 -208 -62 -76 0 -94 4 -146 30
-60 29 -114 92 -114 131 0 48 -4 49 -152 49 l-141 0 6 -59 c27 -251 235 -401
558 -401 267 0 465 111 520 291 44 146 10 290 -91 389 -71 69 -166 111 -359
160 -180 45 -226 64 -265 110 -20 24 -26 43 -26 77 0 101 77 157 215 158 133
0 224 -53 241 -140 l6 -35 141 0 140 0 -6 57 c-17 163 -157 303 -349 348 -79
18 -253 18 -332 -1z"/>
<path d="M33020 22295 c-125 -35 -210 -94 -271 -187 -36 -57 -69 -162 -69
-222 l0 -26 140 0 c136 0 140 1 140 21 0 44 25 104 60 140 86 90 267 74 336
-31 24 -36 28 -53 28 -109 -1 -123 -37 -168 -413 -515 l-281 -259 0 -104 0
-103 500 0 500 0 0 120 0 120 -297 0 -298 0 216 213 c289 284 344 365 356 523
14 182 -101 344 -287 405 -86 29 -280 36 -360 14z"/>
<path d="M50860 22294 c-144 -38 -258 -123 -312 -231 -27 -55 -33 -80 -36
-152 -5 -115 20 -185 93 -256 71 -70 156 -108 352 -159 196 -51 247 -72 288
-116 25 -26 30 -40 30 -80 0 -55 -21 -91 -75 -127 -45 -31 -93 -43 -177 -43
-137 0 -241 65 -261 164 l-8 41 -142 3 c-161 3 -151 10 -132 -88 33 -175 153
-293 350 -347 81 -22 308 -24 390 -4 145 35 265 122 318 231 24 50 27 66 27
165 0 100 -2 115 -28 167 -36 72 -111 141 -203 185 -39 18 -141 51 -228 73
-178 45 -248 76 -276 123 -43 70 -14 156 66 197 41 21 62 25 139 25 73 0 98
-4 131 -22 50 -27 93 -76 101 -114 l6 -29 140 0 140 0 -6 54 c-16 157 -156
298 -338 341 -82 19 -275 19 -349 -1z"/>
<path d="M55442 22294 c-181 -48 -315 -183 -337 -336 l-6 -48 139 0 139 0 17
45 c32 83 104 125 215 125 114 0 183 -60 189 -165 4 -77 -18 -119 -83 -160
-44 -27 -57 -30 -157 -34 l-108 -3 0 -109 0 -109 108 0 c86 0 116 -4 152 -21
84 -38 120 -88 120 -166 0 -61 -26 -110 -76 -145 -120 -85 -331 -39 -374 80
l-14 42 -148 0 -148 0 6 -42 c25 -174 183 -316 394 -354 271 -49 539 54 632
244 30 59 33 76 33 152 0 68 -5 96 -24 137 -40 90 -137 163 -239 179 -38 6
-60 24 -29 24 31 0 136 61 170 100 56 62 71 102 71 195 0 65 -5 91 -26 137
-51 112 -160 198 -293 233 -74 19 -251 19 -323 -1z"/>
<path d="M12535 22205 c-230 -147 -205 -114 -205 -260 0 -69 2 -125 4 -125 3
0 76 45 163 99 l158 100 3 -560 2 -559 150 0 150 0 -2 698 -3 697 -135 2 -135
3 -150 -95z"/>
<path d="M9060 22076 l0 -125 -72 -3 -73 -3 -3 -107 -3 -108 76 0 75 0 0 -307
c0 -181 4 -323 10 -345 17 -60 69 -119 134 -152 49 -26 72 -31 153 -34 87 -4
203 10 203 25 0 3 -10 52 -21 108 l-22 101 -58 -4 c-51 -4 -60 -2 -83 21 l-26
26 0 281 0 280 95 0 95 0 0 110 0 110 -95 0 -94 0 -3 123 -3 122 -142 3 -143
3 0 -125z"/>
<path d="M29407 22193 c-4 -3 -7 -62 -7 -130 l0 -123 -70 0 -70 0 0 -105 0
-105 69 0 70 0 3 -317 c3 -299 4 -321 24 -364 49 -106 148 -160 294 -162 47 0
108 5 136 12 l51 12 -22 102 -21 102 -67 5 c-107 8 -102 -8 -105 325 l-3 285
101 0 100 0 0 105 0 105 -100 0 -100 0 0 130 0 130 -138 0 c-76 0 -142 -3
-145 -7z"/>
<path d="M51790 22075 l0 -125 -70 0 -70 0 0 -110 0 -110 69 0 69 0 5 -312 c3
-233 7 -323 18 -353 20 -60 103 -137 168 -158 61 -20 194 -23 270 -6 57 12 55
-5 21 149 l-16 74 -48 -3 c-64 -4 -102 13 -115 51 -7 19 -11 134 -11 294 l0
264 100 0 100 0 0 110 0 110 -100 0 -100 0 0 125 0 125 -145 0 -145 0 0 -125z"/>
<path d="M13341 22053 c-81 -40 -110 -153 -59 -231 92 -138 314 -59 295 106
-12 111 -133 175 -236 125z"/>
<path d="M33962 22053 c-101 -50 -122 -171 -43 -256 34 -36 44 -41 93 -45 70
-5 120 17 155 69 22 33 25 47 21 99 -4 49 -10 66 -34 91 -54 58 -128 74 -192
42z"/>
<path d="M56405 22051 c-59 -36 -78 -67 -83 -129 -3 -48 0 -63 20 -92 73 -107
203 -108 275 -1 66 98 -15 241 -136 241 -27 0 -58 -8 -76 -19z"/>
<path d="M10008 21945 c-89 -22 -157 -62 -223 -129 -101 -103 -145 -222 -145
-401 0 -226 91 -394 261 -479 219 -110 531 -53 661 119 32 42 74 133 65 141
-8 8 -263 20 -265 12 -10 -24 -59 -71 -93 -88 -60 -31 -167 -28 -230 6 -56 31
-94 81 -108 144 -20 88 -56 80 344 80 l355 0 0 96 c0 241 -110 416 -305 484
-79 28 -237 35 -317 15z m240 -224 c64 -33 112 -104 112 -166 l0 -25 -221 0
-221 0 7 33 c17 76 68 139 135 166 44 17 147 13 188 -8z"/>
<path d="M11272 21946 c-65 -21 -116 -61 -159 -123 l-38 -56 -5 89 -5 89 -142
3 -143 3 0 -721 0 -720 145 0 145 0 2 282 3 282 29 -44 c15 -24 40 -54 55 -68
128 -119 366 -99 499 41 97 103 142 238 142 424 -1 243 -90 417 -255 495 -79
37 -201 47 -273 24z m104 -236 c84 -41 127 -137 127 -285 0 -111 -22 -189 -70
-246 -66 -78 -194 -89 -273 -22 -119 100 -127 404 -14 517 59 59 152 73 230
36z"/>
<path d="M30363 21946 c-173 -40 -304 -168 -359 -351 -25 -83 -25 -277 0 -360
28 -93 74 -171 134 -226 107 -97 220 -134 392 -126 175 7 302 66 380 175 37
52 69 126 59 137 -3 2 -63 7 -134 10 l-130 6 -20 -33 c-11 -18 -40 -44 -64
-57 -60 -33 -167 -35 -227 -3 -77 40 -124 115 -124 200 l0 32 356 0 357 0 -6
108 c-6 129 -31 214 -86 300 -51 78 -139 144 -229 173 -87 26 -218 33 -299 15z
m239 -233 c54 -30 92 -82 103 -145 l7 -38 -221 0 c-215 0 -221 1 -221 20 0 32
28 92 58 124 66 70 185 87 274 39z"/>
<path d="M31630 21947 c-26 -7 -63 -23 -84 -36 -36 -23 -116 -113 -116 -132 0
-5 -4 -9 -10 -9 -6 0 -10 35 -10 85 l0 85 -140 0 -140 0 0 -715 0 -715 145 0
145 0 1 278 c0 264 1 276 17 252 39 -58 96 -109 141 -129 170 -73 376 -5 481
159 93 146 114 421 44 608 -44 118 -142 222 -244 257 -63 22 -176 28 -230 12z
m114 -254 c26 -19 52 -50 71 -88 28 -56 30 -65 30 -179 0 -115 -2 -124 -32
-188 -43 -92 -90 -123 -183 -123 -92 0 -136 30 -181 120 -64 130 -48 336 33
428 64 73 182 86 262 30z"/>
<path d="M52761 21949 c-122 -24 -260 -127 -320 -238 -48 -90 -65 -169 -64
-301 0 -97 5 -128 27 -195 67 -204 218 -317 446 -332 219 -15 407 74 484 229
41 83 40 85 -61 92 -49 4 -106 8 -129 11 -38 4 -43 2 -65 -33 -14 -21 -44 -47
-69 -60 -38 -20 -57 -23 -127 -20 -72 3 -86 7 -125 33 -52 37 -87 97 -95 164
l-6 51 357 0 356 0 0 83 c-1 271 -133 458 -361 512 -69 16 -178 18 -248 4z
m229 -231 c54 -28 97 -87 106 -145 l7 -43 -222 0 c-158 0 -221 3 -221 11 0 60
58 147 118 179 54 28 154 27 212 -2z"/>
<path d="M54003 21942 c-68 -24 -117 -63 -156 -123 -18 -27 -35 -49 -39 -49
-5 0 -8 41 -8 90 l0 90 -140 0 -140 0 0 -720 0 -720 145 0 145 0 0 282 0 281
38 -53 c76 -108 195 -155 333 -130 181 33 307 173 344 384 51 298 -43 550
-242 648 -81 40 -201 48 -280 20z m95 -227 c50 -21 79 -51 110 -110 21 -41 26
-68 30 -151 9 -198 -56 -318 -184 -339 -95 -15 -186 43 -225 143 -18 46 -23
78 -23 167 -1 100 2 115 27 170 35 74 51 93 102 116 49 23 113 24 163 4z"/>
<path d="M13365 21380 c-17 -5 -45 -25 -64 -43 -139 -144 66 -365 217 -233 62
55 77 119 42 190 -34 71 -121 109 -195 86z"/>
<path d="M33994 21380 c-133 -30 -167 -203 -56 -288 46 -35 135 -38 179 -6 49
37 73 81 73 139 0 105 -93 178 -196 155z"/>
<path d="M56410 21368 c-59 -30 -90 -77 -90 -137 0 -162 197 -228 291 -98 60
83 25 202 -70 241 -55 21 -78 20 -131 -6z"/>
<path d="M11932 19450 c-18 -11 -40 -37 -49 -58 -45 -107 89 -206 188 -139 44
30 61 63 55 111 -10 87 -118 134 -194 86z"/>
<path d="M31793 19455 c-58 -25 -87 -99 -59 -153 28 -54 64 -75 124 -70 93 8
145 87 108 164 -30 64 -104 89 -173 59z"/>
<path d="M52929 19455 c-79 -43 -80 -158 -2 -206 81 -50 193 10 193 102 0 35
-6 48 -39 80 -33 34 -45 39 -82 39 -24 -1 -56 -7 -70 -15z"/>
<path d="M55012 19450 c-18 -11 -40 -37 -49 -58 -45 -107 89 -206 188 -139 44
30 61 63 55 111 -10 87 -118 134 -194 86z"/>
<path d="M52030 19414 c-90 -24 -161 -64 -223 -125 -81 -82 -101 -130 -102
-249 0 -85 3 -101 29 -153 54 -111 157 -171 419 -246 180 -51 244 -77 285
-115 79 -71 67 -199 -25 -275 -58 -48 -123 -66 -238 -66 -94 0 -105 2 -169 34
-74 36 -118 89 -130 156 l-7 35 -99 0 c-54 0 -101 -4 -104 -9 -11 -17 16 -115
47 -174 56 -108 166 -183 310 -214 101 -21 289 -13 379 16 195 63 312 225 294
410 -8 87 -44 158 -112 220 -74 68 -151 103 -335 151 -272 72 -339 119 -339
235 0 93 70 172 175 196 29 6 90 10 136 7 133 -7 224 -65 249 -158 l11 -40
101 0 100 0 -7 48 c-22 145 -151 272 -322 317 -73 19 -250 19 -323 -1z"/>
<path d="M2920 19330 l0 -90 215 0 215 0 0 -610 0 -610 105 0 105 0 2 608 3
607 218 3 218 2 -3 88 -3 87 -537 3 -538 2 0 -90z"/>
<path d="M5087 19414 c-4 -4 -7 -319 -7 -701 l0 -693 105 0 105 0 0 188 0 188
50 49 c33 32 53 46 58 39 4 -7 84 -113 177 -238 l170 -225 124 -1 c121 0 123
0 110 20 -8 11 -109 145 -226 298 l-211 279 209 223 c115 122 209 224 209 226
0 2 -53 4 -117 4 l-118 0 -210 -225 c-115 -123 -213 -225 -217 -225 -4 0 -9
179 -10 398 l-3 397 -95 3 c-53 1 -99 0 -103 -4z"/>
<path d="M7630 18720 l0 -700 105 0 105 0 0 245 0 245 168 0 c92 0 196 5 232
11 140 22 265 109 320 223 95 197 47 451 -111 576 -104 82 -206 100 -571 100
l-248 0 0 -700z m605 499 c65 -22 130 -93 150 -163 33 -112 -3 -253 -78 -310
-60 -46 -113 -56 -299 -56 l-168 0 0 276 0 276 178 -5 c110 -3 192 -10 217
-18z"/>
<path d="M8800 18720 l0 -700 100 0 99 0 3 358 c3 344 4 358 25 397 47 88 113
125 223 125 106 0 168 -38 207 -125 16 -36 18 -80 21 -397 l3 -358 100 0 99 0
0 358 c0 377 -7 447 -48 528 -50 98 -153 162 -275 171 -140 11 -245 -32 -317
-130 l-35 -47 -5 257 -5 258 -97 3 -98 3 0 -701z"/>
<path d="M14777 19413 c-4 -3 -7 -44 -7 -90 l0 -83 220 0 220 0 0 -610 0 -610
105 0 105 0 0 610 0 610 215 0 215 0 0 90 0 90 -533 0 c-294 0 -537 -3 -540
-7z"/>
<path d="M45497 19413 c-4 -3 -7 -44 -7 -90 l0 -83 220 0 220 0 0 -610 0 -610
105 0 105 0 0 610 0 610 215 0 215 0 0 90 0 90 -533 0 c-294 0 -537 -3 -540
-7z"/>
<path d="M47660 18720 l0 -700 100 0 100 0 0 188 0 188 50 49 c43 43 52 47 64
35 7 -8 88 -115 180 -237 l167 -223 124 0 124 0 -218 288 c-119 158 -221 293
-225 300 -7 12 113 145 358 400 l60 62 -121 0 -121 0 -212 -225 c-117 -124
-216 -225 -221 -225 -5 0 -9 178 -9 400 l0 400 -100 0 -100 0 0 -700z"/>
<path d="M55417 19414 c-4 -4 -7 -319 -7 -701 l0 -693 105 0 105 0 -2 698 -3
697 -95 3 c-53 1 -99 0 -103 -4z"/>
<path d="M58000 19330 l0 -90 215 0 215 0 0 -610 0 -610 105 0 105 0 2 608 3
607 218 3 217 2 0 90 0 90 -540 0 -540 0 0 -90z"/>
<path d="M22990 18715 l0 -695 105 0 105 0 0 695 0 695 -105 0 -105 0 0 -695z"/>
<path d="M32870 18715 l0 -695 105 0 105 0 0 348 c0 344 0 347 24 398 27 57
84 110 136 124 110 31 221 -1 275 -78 l30 -44 3 -374 3 -374 104 0 105 0 0
343 c0 191 -5 371 -11 407 -23 142 -102 249 -212 286 -62 22 -201 24 -264 6
-56 -17 -121 -67 -159 -124 -18 -26 -35 -44 -38 -41 -3 4 -6 120 -6 260 l0
253 -100 0 -100 0 0 -695z"/>
<path d="M35140 18715 l0 -695 99 0 99 0 4 348 c4 384 5 391 71 461 48 50 100
71 182 70 93 0 149 -27 190 -94 l30 -48 3 -369 3 -368 100 0 100 0 -3 398 c-3
386 -4 399 -26 453 -32 80 -81 133 -160 171 -62 31 -73 33 -167 33 -82 -1
-109 -5 -150 -23 -55 -25 -118 -81 -141 -124 -8 -16 -19 -28 -24 -28 -6 0 -10
96 -10 255 l0 255 -100 0 -100 0 0 -695z"/>
<path d="M38205 19393 c-5 -15 -438 -1215 -481 -1335 l-13 -38 114 0 c63 0
115 4 115 9 0 5 28 88 61 185 l61 176 273 0 273 0 63 -185 64 -185 108 0 c59
0 107 3 107 8 0 4 -111 316 -247 695 l-246 687 -123 0 c-107 0 -123 -2 -129
-17z m239 -528 c53 -154 96 -286 96 -292 0 -10 -48 -13 -205 -13 -169 0 -205
2 -205 14 0 10 158 475 195 575 3 9 9 11 14 5 5 -5 52 -135 105 -289z"/>
<path d="M39120 18715 l0 -695 105 0 105 0 0 695 0 695 -105 0 -105 0 0 -695z"/>
<path d="M18020 19195 l0 -125 -75 0 -75 0 0 -85 0 -85 75 0 75 0 0 -333 c0
-386 2 -400 81 -479 62 -62 128 -82 246 -76 46 2 89 10 95 16 8 8 8 26 -1 69
-21 99 -15 93 -84 93 -42 0 -70 5 -86 16 -47 34 -51 61 -51 388 l0 305 108 3
107 3 0 80 0 80 -107 3 -108 3 0 124 0 125 -100 0 -100 0 0 -125z"/>
<path d="M24627 19314 c-4 -4 -7 -63 -7 -131 l0 -123 -75 0 -75 0 0 -80 0 -80
74 0 74 0 4 -343 3 -343 30 -60 c34 -66 96 -115 168 -135 48 -13 212 -9 226 6
6 6 4 37 -7 88 l-16 77 -64 0 c-132 0 -132 1 -132 395 l0 315 105 0 105 0 0
80 0 80 -105 0 -104 0 -3 128 -3 127 -95 3 c-53 1 -99 0 -103 -4z"/>
<path d="M29147 19314 c-4 -4 -7 -63 -7 -131 l0 -123 -75 0 -75 0 0 -80 0 -80
74 0 75 0 3 -343 3 -343 30 -60 c34 -66 96 -115 168 -135 48 -13 212 -9 225 6
6 6 4 39 -6 88 l-16 77 -68 0 c-56 0 -71 4 -95 24 l-28 24 -3 331 -3 331 106
0 105 0 0 80 0 80 -105 0 -104 0 -3 128 -3 127 -95 3 c-53 1 -99 0 -103 -4z"/>
<path d="M32257 19313 c-4 -3 -7 -62 -7 -130 l0 -123 -75 0 -75 0 0 -80 0 -80
74 0 75 0 3 -347 c3 -341 3 -349 26 -395 52 -106 147 -153 296 -146 50 2 96 7
102 11 9 5 7 28 -5 84 l-17 78 -72 5 c-87 6 -111 25 -123 97 -4 26 -8 175 -8
331 l-1 282 110 0 110 0 0 80 0 79 -107 3 -108 3 -3 128 -3 127 -93 0 c-51 0
-96 -3 -99 -7z"/>
<path d="M34520 19190 l0 -130 -75 0 -75 0 0 -80 0 -80 75 0 74 0 3 -352 c3
-342 4 -354 25 -394 55 -103 151 -149 299 -142 51 2 96 7 100 11 7 6 -11 121
-24 155 -3 8 -26 12 -66 12 -41 0 -69 6 -85 16 -47 34 -51 61 -51 389 l0 305
110 0 110 0 0 80 0 79 -107 3 -108 3 -3 128 -3 127 -99 0 -100 0 0 -130z"/>
<path d="M61240 19195 l0 -125 -75 0 -76 0 3 -82 3 -83 72 -3 71 -3 4 -342 c3
-321 5 -345 24 -387 26 -57 76 -106 134 -134 37 -17 64 -21 152 -21 61 0 111
4 117 10 8 8 6 34 -6 88 l-17 77 -58 0 c-68 0 -109 18 -126 55 -9 18 -12 118
-12 340 l0 315 105 0 105 0 0 85 0 85 -105 0 -105 0 0 125 0 125 -105 0 -105
0 0 -125z"/>
<path d="M4303 19060 c-92 -24 -125 -42 -186 -98 -41 -39 -105 -138 -95 -147
2 -1 37 -10 78 -19 41 -9 82 -19 91 -22 11 -3 23 7 37 30 46 77 159 125 263
111 92 -13 150 -71 157 -160 7 -89 -4 -96 -199 -120 -284 -34 -393 -85 -446
-212 -11 -28 -14 -61 -11 -123 6 -135 61 -216 185 -273 41 -18 66 -22 163 -22
113 0 116 1 180 36 40 22 77 51 95 77 17 22 33 41 38 41 4 1 7 -30 7 -69 l0
-70 100 0 100 0 0 353 c0 194 -5 381 -10 416 -25 152 -116 242 -279 277 -89
19 -181 17 -268 -6z m321 -768 c-41 -83 -129 -132 -238 -132 -105 0 -183 46
-195 115 -15 86 24 152 108 179 25 9 98 23 161 32 63 9 131 22 150 28 l35 11
3 -89 c2 -80 0 -95 -24 -144z"/>
<path d="M6390 19069 c-77 -15 -162 -64 -224 -128 -96 -101 -146 -240 -146
-406 0 -342 212 -552 534 -532 143 9 243 52 320 137 38 42 83 127 72 137 -5 6
-143 33 -167 33 -8 0 -30 -20 -47 -46 -45 -63 -113 -94 -208 -94 -171 0 -273
90 -300 267 l-7 43 374 2 374 3 -3 95 c-5 166 -49 286 -136 373 -103 103 -272
148 -436 116z m204 -170 c48 -13 119 -78 145 -132 11 -23 22 -62 23 -87 l3
-45 -270 0 -270 0 3 34 c4 48 37 120 75 160 68 71 185 100 291 70z"/>
<path d="M11168 19064 c-74 -17 -128 -45 -180 -92 -119 -107 -118 -302 2 -405
53 -45 120 -71 264 -102 179 -39 223 -60 246 -115 39 -95 -67 -190 -214 -190
-49 0 -132 28 -164 55 -17 14 -37 42 -45 63 l-16 39 -88 -13 c-48 -8 -92 -14
-96 -14 -24 0 24 -116 67 -162 79 -83 164 -117 311 -125 209 -11 376 67 438
206 29 64 29 171 0 226 -50 94 -128 139 -328 185 -219 51 -260 77 -260 160 0
40 5 54 29 79 51 53 159 75 249 50 46 -12 100 -58 117 -99 11 -26 17 -30 39
-26 14 3 54 11 89 17 70 13 73 18 41 82 -28 57 -94 124 -149 152 -87 44 -239
57 -352 29z"/>
<path d="M12641 19064 c-167 -45 -289 -175 -336 -359 -18 -70 -20 -240 -4
-317 29 -142 136 -287 249 -340 273 -128 598 5 645 265 l7 37 -100 0 -100 0
-7 -29 c-3 -16 -24 -50 -46 -74 -116 -133 -344 -86 -419 87 -67 153 -45 378
47 486 98 115 278 120 373 12 23 -25 44 -59 47 -74 l6 -28 99 0 100 0 -7 38
c-26 145 -153 267 -313 301 -71 15 -175 13 -241 -5z"/>
<path d="M13630 19065 c-119 -34 -190 -83 -235 -166 -25 -46 -29 -65 -29 -129
0 -64 4 -83 28 -128 52 -93 120 -130 327 -178 83 -19 163 -41 179 -49 98 -51
91 -179 -13 -225 -139 -62 -309 -15 -349 96 -8 23 -17 33 -28 30 -8 -2 -52
-10 -98 -16 -94 -14 -92 -10 -46 -107 63 -132 226 -204 433 -190 177 11 322
100 367 224 22 64 18 152 -12 211 -47 95 -119 135 -325 183 -215 49 -262 78
-262 160 0 77 68 128 180 137 99 8 175 -33 228 -121 9 -16 16 -16 98 -1 100
19 98 16 47 109 -35 63 -115 129 -182 151 -75 23 -239 28 -308 9z"/>
<path d="M16193 19065 c-171 -46 -296 -179 -339 -361 -10 -40 -16 -111 -16
-169 -1 -160 40 -285 123 -379 86 -98 187 -144 335 -153 209 -13 376 70 450
222 28 59 31 56 -91 76 -67 10 -80 10 -83 -2 -10 -31 -98 -107 -137 -118 -70
-19 -174 -14 -230 13 -94 43 -165 153 -165 253 l0 33 370 0 370 0 0 83 c0 101
-20 197 -56 274 -32 67 -120 160 -182 192 -94 48 -245 64 -349 36z m243 -179
c82 -38 144 -134 144 -223 l0 -33 -270 0 -270 0 0 24 c0 94 94 218 186 246 59
17 156 11 210 -14z"/>
<path d="M17218 19064 c-109 -26 -187 -80 -236 -163 -24 -40 -27 -56 -27 -131
0 -101 20 -147 86 -204 53 -45 121 -70 274 -103 188 -40 233 -68 242 -148 5
-43 3 -47 -38 -89 -64 -63 -161 -82 -267 -51 -64 19 -105 53 -125 103 l-16 39
-92 -14 c-51 -7 -95 -15 -97 -18 -2 -2 3 -26 13 -54 21 -64 92 -144 156 -177
185 -93 461 -62 589 66 63 63 84 113 84 200 1 89 -20 136 -84 194 -55 49 -98
67 -260 105 -173 41 -234 68 -256 114 -56 118 103 222 269 176 46 -12 100 -58
117 -99 11 -26 17 -30 39 -26 14 3 56 11 93 17 l66 11 -14 40 c-26 76 -90 146
-169 186 -82 41 -237 53 -347 26z"/>
<path d="M23861 19065 c-87 -25 -130 -57 -185 -139 l-26 -39 0 87 0 86 -100 0
-100 0 0 -520 0 -520 99 0 100 0 3 348 3 348 30 59 c42 82 100 118 199 123
109 5 170 -29 217 -120 18 -35 19 -63 19 -398 l0 -360 100 0 101 0 -3 398 c-3
386 -4 399 -26 453 -50 124 -153 195 -297 204 -55 3 -97 0 -134 -10z"/>
<path d="M25545 19069 c-88 -18 -168 -63 -233 -133 -100 -108 -142 -224 -142
-401 0 -333 187 -535 494 -535 147 0 258 40 341 124 45 45 103 141 92 152 -2
3 -46 12 -97 21 -69 13 -95 14 -98 5 -13 -39 -54 -80 -104 -106 -125 -62 -298
-24 -367 81 -34 51 -61 129 -61 175 l0 28 370 0 370 0 0 83 c0 250 -104 421
-298 488 -67 24 -197 32 -267 18z m231 -187 c75 -38 133 -130 134 -209 l0 -43
-271 0 -272 0 7 41 c17 105 95 197 196 230 44 15 162 4 206 -19z"/>
<path d="M26679 19066 c-20 -7 -53 -23 -74 -36 -38 -24 -95 -93 -95 -117 0 -7
-4 -13 -10 -13 -6 0 -10 33 -10 80 l0 80 -95 0 -95 0 0 -520 0 -520 100 0 100
0 0 344 c0 385 2 397 71 463 53 50 99 64 198 62 l86 -2 0 94 0 94 -70 2 c-39
2 -86 -3 -106 -11z"/>
<path d="M27272 19065 c-134 -29 -227 -93 -280 -193 l-31 -59 97 -22 c72 -17
98 -19 101 -10 9 27 79 93 116 110 52 24 169 25 225 3 48 -19 75 -54 91 -117
15 -60 6 -93 -30 -112 -16 -8 -87 -22 -158 -30 -281 -35 -388 -80 -446 -190
-30 -57 -31 -201 -1 -266 28 -60 86 -116 154 -148 45 -20 74 -26 155 -29 135
-5 197 17 278 99 l57 58 0 -69 0 -70 101 0 100 0 -3 403 c-3 388 -4 404 -25
449 -74 161 -280 241 -501 193z m326 -650 c-6 -114 -46 -181 -133 -228 -32
-18 -57 -22 -130 -22 -142 0 -205 45 -205 145 0 101 62 142 258 171 70 11 145
25 167 33 49 16 49 15 43 -99z"/>
<path d="M28348 19064 c-167 -40 -296 -170 -344 -345 -24 -91 -28 -214 -10
-309 40 -213 178 -364 364 -400 77 -16 220 -8 282 14 131 48 227 159 253 294
l7 32 -99 0 -98 0 -17 -45 c-21 -54 -84 -111 -140 -126 -103 -28 -223 11 -282
90 -56 75 -77 161 -72 294 3 97 7 120 31 172 55 118 128 168 247 169 64 1 82
-3 121 -26 45 -26 91 -82 104 -125 6 -22 11 -23 105 -23 l100 0 -6 33 c-18 98
-101 211 -193 261 -96 52 -239 68 -353 40z"/>
<path d="M36585 19069 c-157 -32 -295 -159 -346 -318 -30 -91 -37 -280 -15
-374 57 -242 229 -377 480 -377 147 0 258 40 341 124 45 45 103 141 92 152 -2
3 -46 12 -97 21 -69 13 -95 14 -98 5 -13 -39 -54 -80 -104 -106 -48 -23 -70
-28 -132 -28 -159 0 -274 100 -292 256 l-7 56 372 0 371 0 0 88 c0 97 -25 213
-60 282 -45 88 -137 166 -238 201 -67 24 -197 32 -267 18z m198 -173 c90 -33
154 -115 164 -211 l6 -55 -273 0 -273 0 7 41 c17 105 97 200 196 230 40 12
132 9 173 -5z"/>
<path d="M46894 19065 c-69 -15 -146 -51 -193 -91 -38 -32 -88 -102 -96 -136
-6 -25 -4 -26 72 -43 43 -9 86 -19 95 -21 10 -3 19 3 23 15 9 30 61 78 109
103 57 29 174 31 231 3 48 -24 82 -72 90 -130 14 -92 -8 -106 -201 -130 -220
-27 -308 -54 -378 -115 -77 -68 -103 -177 -71 -298 16 -57 27 -75 75 -124 76
-75 157 -102 289 -96 110 5 180 36 246 110 l45 50 0 -71 0 -71 101 0 100 0 -3
403 -3 402 -26 56 c-31 65 -82 120 -140 150 -90 46 -245 60 -365 34z m334
-632 c-3 -75 -9 -108 -26 -140 -71 -136 -290 -179 -399 -79 -31 28 -37 40 -40
87 -8 102 47 148 209 174 175 29 214 37 229 46 28 18 31 7 27 -88z"/>
<path d="M48953 19065 c-169 -46 -290 -173 -339 -355 -23 -87 -23 -254 -1
-339 62 -234 206 -353 443 -368 206 -13 373 69 449 220 30 61 33 58 -90 78
-67 10 -80 10 -83 -2 -3 -8 -26 -35 -51 -60 -54 -54 -95 -69 -197 -69 -131 0
-234 74 -269 194 -8 27 -15 65 -15 83 l0 33 371 0 372 0 -6 113 c-10 211 -80
344 -228 430 -89 53 -248 71 -356 42z m243 -179 c82 -38 144 -134 144 -223 l0
-33 -270 0 -270 0 0 33 c0 83 91 202 178 233 61 22 159 17 218 -10z"/>
<path d="M50451 19060 c-84 -22 -153 -63 -205 -120 -32 -36 -82 -119 -74 -124
2 -2 44 -12 93 -24 l90 -21 15 22 c63 90 120 120 229 121 96 0 151 -25 181
-84 20 -39 27 -123 12 -147 -13 -21 -59 -32 -194 -48 -143 -17 -257 -44 -317
-74 -51 -27 -117 -101 -130 -147 -6 -22 -11 -67 -11 -101 0 -125 66 -228 180
-282 49 -23 67 -26 170 -26 106 0 120 2 172 28 35 17 75 48 103 80 l45 52 0
-73 0 -72 101 0 100 0 -3 398 c-3 352 -6 402 -22 444 -23 62 -94 141 -152 169
-105 50 -256 62 -383 29z m356 -623 c-3 -51 -12 -109 -20 -128 -37 -89 -117
-139 -233 -147 -62 -4 -80 -1 -127 21 -70 32 -91 67 -85 144 8 94 68 131 261
158 65 9 135 22 155 29 20 8 41 14 46 15 5 0 7 -39 3 -92z"/>
<path d="M53735 19071 c-82 -23 -161 -84 -185 -141 -21 -51 -30 -34 -30 55 l0
85 -95 0 -95 0 0 -525 0 -525 100 0 100 0 0 353 c0 349 0 352 24 403 75 160
285 174 367 24 11 -20 15 -106 17 -402 l3 -378 100 0 99 0 0 363 0 363 28 55
c36 71 88 101 176 102 104 1 179 -54 197 -144 4 -24 8 -200 9 -391 l0 -348
101 0 100 0 -3 403 c-4 459 -6 469 -83 555 -66 73 -126 97 -245 97 -81 0 -103
-4 -152 -27 -57 -26 -132 -94 -143 -129 -9 -27 -22 -24 -40 11 -22 42 -79 96
-127 121 -46 23 -171 34 -223 20z"/>
<path d="M56111 19060 c-91 -24 -144 -55 -198 -113 -38 -41 -89 -125 -81 -132
2 -1 44 -12 93 -23 82 -19 91 -20 100 -5 54 88 126 126 234 127 131 0 201 -60
201 -171 0 -80 -5 -83 -230 -112 -232 -31 -331 -72 -391 -160 -73 -110 -42
-310 62 -392 76 -60 123 -74 249 -74 102 0 121 3 165 25 28 13 74 49 103 78
l52 55 0 -72 0 -71 100 0 100 0 0 358 c0 196 -4 383 -10 416 -23 142 -106 228
-257 267 -95 24 -196 24 -292 -1z m324 -770 c-58 -114 -225 -165 -352 -106
-62 29 -83 64 -83 137 0 47 3 55 38 88 46 44 80 55 232 77 63 9 131 22 150 28
l35 11 3 -92 c2 -83 0 -98 -23 -143z"/>
<path d="M57266 19064 c-57 -21 -105 -60 -140 -117 l-31 -50 -3 86 -3 87 -94
0 -95 0 0 -525 0 -525 100 0 100 0 0 348 0 348 26 52 c44 89 152 140 270 126
l54 -7 0 97 0 96 -72 -1 c-40 0 -91 -7 -112 -15z"/>
<path d="M59418 19065 c-86 -22 -136 -51 -205 -121 -102 -101 -153 -237 -153
-409 0 -341 213 -552 534 -532 182 11 314 89 379 224 26 54 25 55 -85 73 -76
12 -83 12 -93 -5 -49 -84 -124 -125 -231 -125 -171 0 -273 90 -300 268 l-7 42
372 0 c337 0 372 2 378 17 11 27 -15 224 -38 291 -42 123 -132 216 -258 263
-73 27 -214 34 -293 14z m234 -174 c51 -22 121 -94 137 -142 6 -19 12 -52 14
-74 l2 -40 -270 0 -270 0 3 34 c7 84 75 180 157 217 64 30 164 32 227 5z"/>
<path d="M60461 19070 c-68 -15 -164 -64 -206 -105 -105 -106 -107 -282 -4
-383 54 -53 120 -81 279 -117 82 -19 162 -40 177 -49 49 -25 75 -61 77 -105 1
-52 -26 -89 -90 -121 -63 -32 -188 -35 -244 -6 -51 27 -88 65 -101 103 -8 24
-15 32 -27 29 -10 -3 -54 -10 -98 -16 l-82 -12 10 -36 c22 -84 90 -162 176
-206 78 -40 242 -57 348 -37 190 36 314 156 314 305 0 78 -16 128 -57 176 -48
56 -135 94 -306 135 -81 19 -160 41 -176 50 -65 33 -89 102 -57 163 22 42 88
74 166 80 95 6 166 -26 205 -93 22 -37 32 -45 49 -41 11 3 51 10 89 16 37 7
67 16 67 22 0 29 -61 126 -103 163 -68 62 -139 86 -262 91 -55 2 -120 -1 -144
-6z"/>
<path d="M9790 19067 c0 -3 86 -242 191 -533 l190 -528 -22 -59 c-41 -109 -93
-150 -186 -145 l-57 3 -23 -75 c-14 -45 -19 -78 -13 -84 5 -5 51 -11 102 -13
79 -4 102 -2 152 17 74 28 134 83 174 157 27 52 462 1232 462 1255 0 5 -47 7
-107 6 l-107 -3 -131 -403 c-73 -221 -135 -405 -138 -408 -3 -3 -66 178 -139
403 l-134 408 -107 3 c-59 1 -107 1 -107 -1z"/>
<path d="M11900 18545 l0 -525 100 0 100 0 0 525 0 525 -100 0 -100 0 0 -525z"/>
<path d="M52890 18545 l0 -525 100 0 100 0 0 525 0 525 -100 0 -100 0 0 -525z"/>
<path d="M54980 18545 l0 -525 100 0 100 0 0 525 0 525 -100 0 -100 0 0 -525z"/>
<path d="M30132 19048 c3 -7 72 -242 154 -521 l149 -508 104 3 104 3 104 370
c57 203 106 371 109 374 12 12 28 -39 125 -382 l103 -368 104 3 104 3 149 505
c82 278 149 511 149 518 0 10 -24 12 -102 10 l-103 -3 -99 -375 c-55 -206
-101 -377 -103 -379 -1 -2 -5 -2 -8 0 -2 3 -45 158 -95 345 -50 186 -95 356
-101 377 l-10 38 -106 -3 -107 -3 -100 -375 c-55 -206 -101 -377 -103 -379 -2
-2 -6 -2 -9 2 -6 5 -203 732 -204 750 0 4 -48 7 -106 7 -81 0 -105 -3 -102
-12z"/>
<path d="M31750 18540 l0 -520 100 0 100 0 0 520 0 520 -100 0 -100 0 0 -520z"/>
<path d="M49340 17250 c0 -27 -3 -30 -30 -30 -27 0 -30 -3 -30 -30 0 -25 -4
-30 -25 -30 l-25 0 -2 -277 -3 -278 -1682 -3 -1683 -2 0 -25 c0 -21 -5 -25
-29 -25 -27 0 -29 -3 -36 -55 -6 -50 -9 -55 -31 -55 l-24 0 0 -6695 0 -6695
24 0 c22 0 25 -5 31 -54 7 -50 10 -55 34 -58 18 -2 27 -10 29 -24 2 -16 12
-23 40 -28 49 -8 10666 -8 10715 0 31 6 37 11 37 30 0 20 5 24 30 24 l30 0 0
80 c0 79 0 80 25 80 l25 0 0 6645 0 6645 -25 0 c-25 0 -25 1 -25 80 l0 80 -30
0 c-25 0 -30 4 -30 25 l0 25 -1687 2 -1688 3 -3 252 -2 252 -23 3 c-19 3 -22
10 -25 55 -3 48 -5 52 -30 55 -21 2 -28 9 -30 31 l-3 27 -1910 0 -1909 0 0
-30z m-112 -1287 l2 -253 24 0 c21 0 24 -6 30 -54 7 -52 8 -54 44 -60 20 -3
283 -6 585 -6 l547 0 0 -25 0 -25 1130 0 1130 0 0 25 0 25 204 0 c112 0 224 3
250 6 l46 7 0 41 c0 76 11 116 31 116 23 0 24 5 24 260 l0 195 1495 3 c822 2
1519 0 1548 -3 l52 -6 0 -6470 0 -6469 -5117 2 -5118 3 -3 6460 c-1 3553 0
6466 3 6473 3 10 318 12 1547 10 l1543 -3 3 -252z"/>
<path d="M47428 14523 l-58 -4 0 -49 c0 -47 -2 -50 -25 -50 l-25 0 0 -1750 0
-1750 25 0 c23 0 25 -3 25 -49 0 -48 0 -48 38 -55 48 -8 7635 -8 7684 0 37 6
37 7 40 58 3 47 5 51 31 54 l27 3 0 1740 0 1739 -24 0 c-22 0 -25 5 -31 54
l-7 53 -81 7 c-84 6 -7516 5 -7619 -1z m7372 -1853 l0 -1520 -3544 0 -3543 0
-7 46 c-3 26 -6 689 -6 1474 0 785 3 1448 6 1474 l7 46 3543 0 3544 0 0 -1520z"/>
<path d="M48248 13733 c-22 -3 -28 -10 -28 -29 0 -20 -5 -24 -30 -24 l-30 0 0
-110 0 -110 25 0 c21 0 25 -5 25 -30 l0 -30 225 0 225 0 0 -845 0 -845 30 0
c27 0 30 -3 30 -30 0 -25 4 -30 25 -30 20 0 25 -5 25 -25 0 -25 1 -25 84 -25
l85 0 3 28 c2 21 9 28 31 30 l27 3 0 839 0 839 28 3 c21 2 28 9 30 31 l3 27
200 0 199 0 0 25 c0 20 5 25 25 25 l25 0 0 115 0 115 -30 0 c-27 0 -30 3 -30
30 l0 30 -587 -1 c-324 -1 -600 -4 -615 -6z"/>
<path d="M49900 13710 c0 -25 -4 -30 -24 -30 -22 0 -25 -5 -31 -55 -7 -49 -10
-55 -31 -55 l-24 0 0 -900 0 -900 24 0 c21 0 24 -6 31 -55 6 -50 9 -55 31 -55
20 0 24 -5 24 -30 l0 -30 565 0 565 0 0 25 c0 20 5 25 24 25 21 0 25 6 28 33
2 27 8 33 31 35 25 3 27 6 27 53 0 45 -2 49 -24 49 -22 0 -25 5 -31 60 l-7 60
-443 0 -442 0 -7 46 c-8 60 -8 427 0 477 l7 37 418 0 419 0 0 24 c0 19 6 25
28 28 22 2 28 8 30 36 3 26 7 32 28 32 22 0 24 4 24 50 0 46 -2 50 -24 50 -21
0 -24 6 -30 54 -7 52 -8 54 -44 60 -20 3 -220 6 -443 6 l-406 0 -7 38 c-8 49
-8 416 0 476 l7 46 442 0 443 0 7 55 c6 50 9 55 31 55 22 0 24 3 24 54 0 52
-1 55 -27 58 -22 2 -29 9 -31 31 -3 21 -9 27 -28 27 -20 0 -24 5 -24 30 l0 30
-565 0 -565 0 0 -30z"/>
<path d="M51480 13710 c0 -27 -3 -30 -30 -30 l-30 0 0 -559 0 -560 28 -3 c21
-2 28 -9 30 -30 l3 -28 425 0 424 0 0 -24 c0 -18 6 -25 23 -28 l22 -3 0 -225
0 -225 -27 -3 c-22 -3 -28 -9 -28 -28 l0 -24 -419 0 -420 0 -3 -27 c-2 -22 -9
-29 -30 -31 l-28 -3 0 -110 0 -109 30 0 c27 0 30 -3 30 -30 l0 -30 565 0 565
0 0 25 c0 20 5 25 25 25 21 0 25 5 25 30 0 27 3 30 30 30 l30 0 0 498 c0 273
-3 514 -6 535 -6 31 -11 37 -30 37 -20 0 -24 5 -24 30 l0 30 -450 0 -450 0 0
280 0 280 450 0 450 0 0 30 c0 25 4 30 24 30 22 0 25 5 31 53 11 86 5 111 -27
115 -26 3 -28 6 -28 51 0 48 0 48 -37 55 -21 3 -287 6 -590 6 l-553 0 0 -30z"/>
<path d="M53050 13710 c0 -25 -4 -30 -24 -30 -22 0 -25 -5 -31 -52 -4 -29 -5
-80 -3 -113 3 -57 4 -60 31 -63 21 -3 27 -9 27 -28 l0 -24 200 0 200 0 0 -30
c0 -25 4 -30 25 -30 l25 0 0 -840 0 -840 30 0 c27 0 30 -3 30 -30 l0 -30 85 0
c83 0 85 0 85 24 0 19 6 25 28 28 21 2 28 9 30 31 3 21 9 27 28 27 l24 0 0
845 0 845 225 0 225 0 0 30 c0 25 4 30 24 30 22 0 25 5 31 53 11 86 5 111 -27
115 -26 3 -28 6 -28 51 0 48 0 48 -37 55 -21 3 -300 6 -620 6 l-583 0 0 -30z"/>
<path d="M47377 9513 c-4 -3 -7 -28 -7 -55 0 -45 -2 -48 -25 -48 l-25 0 0
-930 0 -930 25 0 c21 0 25 -5 25 -30 0 -30 1 -30 55 -30 52 0 55 -1 55 -25 l0
-25 900 0 900 0 0 25 c0 21 5 25 30 25 27 0 30 3 30 30 0 27 3 30 30 30 l30 0
0 918 c0 504 -3 934 -6 955 -6 31 -11 37 -30 37 -20 0 -24 5 -24 30 l0 30
-978 0 c-538 0 -982 -3 -985 -7z m1633 -357 c0 -18 6 -25 23 -28 l22 -3 0
-645 0 -645 -672 -3 -673 -2 0 675 0 675 650 0 650 0 0 -24z"/>
<path d="M48610 8875 c0 -21 -5 -25 -30 -25 -27 0 -30 -3 -30 -30 0 -27 -3
-30 -30 -30 -27 0 -30 -3 -30 -30 0 -25 -4 -30 -25 -30 -20 0 -25 -5 -25 -25
0 -21 -5 -25 -30 -25 -27 0 -30 -3 -30 -30 0 -27 -3 -30 -30 -30 -25 0 -30 -4
-30 -24 0 -19 -7 -25 -35 -30 -20 -4 -56 -4 -80 0 -39 5 -45 10 -45 30 0 20
-5 24 -30 24 -27 0 -30 3 -30 30 l0 30 -85 0 -85 0 0 -30 c0 -26 -4 -30 -28
-30 -24 0 -28 -4 -27 -27 0 -23 -5 -29 -27 -31 -28 -3 -28 -4 -28 -82 0 -78 0
-79 28 -82 21 -2 28 -9 30 -30 3 -22 9 -28 28 -28 20 0 24 -5 24 -30 0 -27 3
-30 30 -30 27 0 30 -3 30 -30 0 -25 4 -30 25 -30 20 0 25 -5 25 -25 0 -21 5
-25 30 -25 27 0 30 -3 30 -30 l0 -30 60 0 c57 0 60 -1 60 -25 0 -20 5 -25 25
-25 20 0 25 5 25 25 0 22 4 24 58 27 54 3 57 4 60 31 3 21 9 27 28 27 19 0 24
5 24 25 0 21 5 25 30 25 27 0 30 3 30 30 0 25 4 30 24 30 19 0 25 6 28 28 2
21 9 28 31 30 21 3 27 9 27 28 0 20 5 24 30 24 27 0 30 3 30 30 0 25 4 30 25
30 20 0 25 5 25 25 0 21 5 25 30 25 27 0 30 3 30 29 0 25 4 30 28 33 21 2 28
9 30 31 3 21 9 27 28 27 24 0 24 0 24 109 l0 110 -27 3 c-22 2 -29 9 -31 31
l-3 27 -110 0 -109 0 0 -25z"/>
<path d="M50857 9513 c-4 -3 -7 -14 -7 -24 0 -11 -9 -19 -22 -21 -18 -2 -24
-11 -26 -35 -3 -27 -7 -33 -28 -33 -19 0 -24 -5 -24 -25 0 -20 5 -25 25 -25
24 0 25 -3 25 -54 0 -52 1 -55 28 -58 21 -2 28 -9 30 -30 l3 -28 2110 0 2109
0 0 30 c0 25 4 30 24 30 22 0 25 5 31 55 7 49 10 55 31 55 19 0 24 5 24 24 0
19 -6 25 -27 28 -23 2 -29 8 -31 36 -3 26 -7 32 -28 32 -19 0 -24 5 -24 25 l0
25 -2108 0 c-1160 0 -2112 -3 -2115 -7z"/>
<path d="M50910 7806 c0 -22 -5 -25 -55 -31 l-55 -7 0 -54 c0 -51 -1 -54 -25
-54 -20 0 -25 -5 -25 -25 0 -20 5 -25 25 -25 22 0 24 -4 27 -57 l3 -58 53 -3
c48 -3 52 -5 52 -28 l0 -24 2080 0 2080 0 0 25 c0 21 5 25 29 25 28 0 29 2 36
60 6 55 9 60 31 60 19 0 24 5 24 25 0 20 -5 25 -24 25 -21 0 -24 6 -30 54 l-7
55 -55 7 c-48 6 -54 9 -54 30 l0 24 -2055 0 -2055 0 0 -24z"/>
<path d="M47430 6340 c0 -27 -3 -30 -30 -30 -27 0 -30 -3 -30 -30 0 -25 -4
-30 -25 -30 l-25 0 0 -925 0 -925 25 0 c21 0 25 -5 25 -30 0 -25 4 -30 25 -30
20 0 25 -5 25 -25 l0 -25 960 0 960 0 0 30 c0 25 4 30 24 30 22 0 25 5 31 53
3 28 5 457 3 952 l-3 900 -27 3 c-22 3 -28 9 -28 27 0 18 -6 24 -27 27 -22 2
-29 9 -31 31 l-3 27 -925 0 -924 0 0 -30z m1630 -1015 l0 -645 -25 0 c-20 0
-25 -5 -25 -25 l0 -25 -650 0 -650 0 0 670 0 670 675 0 675 0 0 -645z"/>
<path d="M48660 5726 c0 -23 -4 -25 -52 -28 -49 -3 -53 -5 -56 -30 -3 -21 -9
-27 -30 -30 -21 -2 -28 -9 -30 -30 -3 -22 -9 -28 -28 -28 -19 0 -24 -5 -24
-24 0 -19 -6 -25 -27 -28 -22 -2 -29 -9 -31 -30 -3 -22 -9 -28 -27 -28 -18 0
-24 -6 -27 -27 -2 -22 -9 -29 -30 -31 -22 -3 -28 -9 -28 -28 0 -19 -5 -24 -25
-24 -20 0 -25 5 -25 25 0 21 -5 25 -30 25 -27 0 -30 3 -30 30 l0 30 -139 0
-140 0 -6 -55 c-7 -49 -10 -55 -31 -55 -23 0 -24 -3 -24 -60 0 -57 1 -60 24
-60 19 0 25 -6 28 -27 2 -22 9 -29 30 -31 23 -3 27 -9 33 -53 6 -43 10 -49 31
-49 20 0 24 -5 24 -29 0 -27 3 -29 55 -36 50 -6 55 -9 55 -31 0 -20 5 -24 30
-24 27 0 30 -3 30 -30 l0 -30 85 0 85 0 0 29 c0 27 3 29 55 36 50 6 55 9 55
31 0 19 5 24 24 24 19 0 25 6 28 28 2 21 9 28 30 30 21 3 27 9 30 30 2 19 10
28 25 30 14 2 23 11 25 25 2 15 11 23 30 25 21 3 27 9 30 30 2 21 9 28 31 30
21 3 27 9 27 28 0 20 5 24 30 24 27 0 30 3 30 30 0 25 4 30 24 30 21 0 25 6
31 50 6 44 10 50 31 50 24 0 24 2 24 90 0 89 0 90 -24 90 -19 0 -25 6 -28 28
-2 21 -9 28 -30 30 -22 3 -28 9 -28 28 0 23 -3 24 -60 24 -57 0 -60 -1 -60
-24z"/>
<path d="M50860 6340 c0 -27 -3 -30 -30 -30 -30 0 -30 -1 -30 -55 0 -52 -1
-55 -25 -55 -20 0 -25 -5 -25 -25 0 -20 5 -25 25 -25 22 0 24 -4 27 -57 l3
-58 58 -3 c53 -3 57 -5 57 -27 l0 -25 2050 0 2050 0 0 25 c0 24 3 25 54 25
l54 0 7 60 c6 55 9 60 31 60 19 0 24 5 24 25 0 20 -5 25 -24 25 -22 0 -25 5
-31 54 -7 50 -10 55 -34 58 -20 2 -27 9 -29 31 l-3 27 -2105 0 -2104 0 0 -30z"/>
<path d="M50850 4595 c0 -20 -5 -25 -25 -25 l-25 0 0 -115 0 -115 30 0 c25 0
30 -4 30 -25 l0 -25 2110 0 2110 0 0 25 c0 20 5 25 24 25 22 0 25 5 31 59 4
32 4 84 0 115 -7 50 -10 56 -31 56 -19 0 -24 5 -24 25 l0 25 -2115 0 -2115 0
0 -25z"/>
<path d="M3850 16805 c0 -20 -5 -25 -25 -25 -21 0 -25 -5 -25 -30 0 -27 -3
-30 -30 -30 l-30 0 0 -1180 0 -1180 225 0 225 0 0 1010 0 1010 4610 0 4610 0
0 -6300 0 -6300 -4610 0 -4610 0 0 5065 0 5065 -225 0 -225 0 0 -5229 0 -5230
28 -3 c21 -2 28 -9 30 -30 3 -22 9 -28 27 -28 18 0 24 -6 27 -27 l3 -28 4948
-3 4947 -2 0 30 c0 27 3 30 30 30 27 0 30 3 30 30 0 25 4 30 25 30 l25 0 0
6635 0 6635 -24 0 c-19 0 -25 6 -28 28 -2 21 -9 28 -30 30 -22 3 -28 9 -28 28
l0 24 -4950 0 -4950 0 0 -25z"/>
<path d="M57720 16575 c0 -21 -5 -25 -30 -25 -27 0 -30 -3 -30 -30 0 -25 -4
-30 -25 -30 l-25 0 0 -5535 0 -5535 24 0 c22 0 25 -5 31 -60 6 -55 9 -60 31
-60 22 0 24 -4 24 -47 0 -27 3 -65 6 -86 6 -31 11 -37 30 -37 22 0 24 -4 24
-55 0 -51 2 -55 24 -55 22 0 25 -5 31 -60 6 -55 9 -60 31 -60 23 0 24 -2 24
-80 l0 -80 30 0 c30 0 30 -1 30 -55 0 -52 1 -55 25 -55 22 0 24 -4 27 -57 3
-55 4 -58 31 -61 26 -3 27 -6 27 -58 0 -50 2 -54 24 -54 20 0 24 -6 30 -46 3
-26 6 -64 6 -85 0 -35 3 -39 25 -39 24 0 25 -3 25 -55 0 -54 0 -55 30 -55 l30
0 0 -60 c0 -57 1 -60 24 -60 23 0 25 -4 28 -52 3 -49 5 -53 31 -56 27 -3 27
-4 27 -82 0 -78 0 -79 28 -82 26 -3 27 -6 30 -60 3 -54 5 -58 27 -58 24 0 25
-3 25 -55 0 -54 0 -55 30 -55 l30 0 0 -60 c0 -56 1 -60 24 -60 19 0 24 -6 30
-37 3 -21 6 -57 6 -80 0 -39 2 -43 25 -43 24 0 25 -3 25 -54 0 -52 1 -55 28
-58 26 -3 27 -6 30 -60 3 -54 5 -58 27 -58 20 0 25 -5 25 -25 0 -21 5 -25 30
-25 27 0 30 -3 30 -30 0 -29 1 -30 48 -30 26 0 64 3 85 6 31 6 37 11 37 30 0
19 5 24 24 24 22 0 25 5 31 55 7 49 10 55 31 55 22 0 24 4 24 54 0 52 1 55 28
58 26 3 27 6 30 61 3 53 5 57 27 57 24 0 25 3 25 55 0 54 0 55 30 55 l30 0 0
80 c0 78 1 80 24 80 22 0 25 5 31 60 6 55 9 60 31 60 22 0 24 4 24 55 0 54 0
55 30 55 l30 0 0 60 c0 57 1 60 25 60 22 0 25 4 25 34 0 18 3 54 6 80 6 40 10
46 30 46 22 0 24 4 24 54 0 52 1 55 28 58 26 3 27 6 30 61 3 53 5 57 27 57 24
0 25 3 25 55 0 54 0 55 30 55 l30 0 0 85 c0 83 0 85 24 85 22 0 25 5 31 55 7
49 10 55 31 55 21 0 23 5 26 58 3 49 6 57 24 60 23 3 34 40 34 120 0 38 2 42
24 42 21 0 24 6 31 55 6 50 9 55 31 55 23 0 24 3 24 60 0 57 1 60 24 60 22 0
25 5 31 55 7 49 10 55 31 55 21 0 24 5 24 39 0 21 3 59 6 85 6 40 10 46 30 46
l24 0 0 5485 0 5485 -24 0 c-22 0 -25 5 -31 55 -7 52 -9 55 -36 55 -24 0 -29
4 -29 25 l0 25 -1150 0 -1150 0 0 -25z m950 -6597 c0 -2312 3 -4220 6 -4240
l7 -38 -342 0 -341 0 0 4240 0 4240 335 0 335 0 0 -4202z m1070 -38 l0 -4240
-335 0 -335 0 0 4240 0 4240 335 0 335 0 0 -4240z m-110 -4695 c0 -52 -1 -55
-25 -55 -24 0 -25 -3 -25 -55 0 -54 0 -55 -30 -55 l-30 0 0 -60 c0 -57 -1 -60
-24 -60 -22 0 -25 -5 -31 -55 -7 -49 -10 -55 -31 -55 -22 0 -23 -3 -26 -82 -3
-82 -3 -83 -30 -86 -27 -3 -28 -6 -28 -58 0 -51 -2 -54 -24 -54 -19 0 -25 -6
-28 -27 l-3 -28 -395 -3 c-217 -2 -419 0 -447 3 l-53 6 0 42 c0 23 -3 59 -6
80 -6 31 -11 37 -30 37 -22 0 -24 4 -24 55 0 51 -2 55 -24 55 -22 0 -25 5 -31
60 -6 55 -9 60 -31 60 -22 0 -24 4 -24 55 0 51 -2 55 -24 55 -19 0 -24 6 -30
38 -3 20 -6 58 -6 85 0 43 -2 47 -25 47 -17 0 -25 6 -25 18 0 9 -3 34 -6 55
l-7 37 762 0 761 0 0 -55z"/>
<path d="M15273 16153 c-49 -4 -53 -6 -53 -29 0 -24 -2 -24 -84 -24 l-85 0 -3
-27 c-3 -26 -7 -28 -55 -31 -49 -3 -53 -5 -53 -28 0 -20 -5 -24 -30 -24 -27 0
-30 -3 -30 -30 0 -27 -3 -30 -30 -30 -25 0 -30 -4 -30 -25 0 -20 -5 -25 -25
-25 -21 0 -25 -5 -25 -30 0 -27 -3 -30 -30 -30 -27 0 -30 -3 -30 -30 0 -25 -4
-30 -24 -30 -22 0 -25 -5 -31 -55 -7 -49 -10 -55 -31 -55 -21 0 -24 -5 -24
-39 0 -21 -3 -59 -6 -85 -6 -40 -10 -46 -30 -46 l-24 0 0 -4785 0 -4785 24 0
c24 0 24 -2 31 -110 7 -107 8 -110 31 -110 23 0 23 -2 26 -112 3 -107 4 -113
24 -116 27 -4 34 -35 34 -143 0 -77 1 -79 24 -79 24 0 24 -2 31 -115 7 -112 8
-115 31 -115 24 0 24 -1 24 -110 0 -109 0 -110 24 -110 28 0 36 -32 36 -152 0
-76 0 -78 25 -78 24 0 25 -2 25 -64 0 -35 3 -84 6 -110 6 -40 10 -46 30 -46
24 0 24 -1 24 -110 l0 -110 30 0 c27 0 30 -3 30 -30 0 -25 4 -30 25 -30 20 0
25 -5 25 -25 l0 -25 340 0 340 0 0 25 c0 20 5 25 25 25 21 0 25 5 25 30 0 27
3 30 30 30 l30 0 0 110 c0 109 0 110 24 110 20 0 24 6 30 46 3 26 6 75 6 110
0 62 1 64 25 64 25 0 25 2 25 78 0 120 8 152 36 152 24 0 24 1 24 110 0 109 0
110 24 110 23 0 24 3 31 115 7 113 7 115 31 115 23 0 24 3 24 73 0 109 8 145
34 149 20 3 21 9 24 115 3 111 3 113 26 113 23 0 24 3 31 110 7 108 7 110 31
110 l24 0 0 625 0 625 -115 0 -115 0 2 223 3 222 113 3 112 3 0 3934 0 3935
-24 0 c-20 0 -24 6 -30 46 -3 26 -6 64 -6 85 0 35 -3 39 -25 39 -21 0 -25 5
-25 30 0 25 -4 30 -24 30 -22 0 -25 5 -31 55 -7 52 -9 55 -36 55 -26 0 -29 4
-29 30 0 25 -4 30 -25 30 -20 0 -25 5 -25 25 0 21 -5 25 -30 25 -27 0 -30 3
-30 30 0 27 -3 30 -30 30 -25 0 -30 4 -30 24 0 23 -4 25 -52 28 -49 3 -53 5
-56 31 l-3 27 -85 0 c-82 0 -84 1 -84 24 0 22 -5 23 -77 30 -76 6 -211 6 -310
-1z m277 -478 c0 -24 3 -25 60 -25 57 0 60 -1 60 -24 0 -21 6 -25 49 -31 l50
-7 7 -54 c6 -48 9 -54 30 -54 22 0 24 -4 24 -55 0 -54 0 -55 30 -55 l30 0 0
-620 0 -620 -450 0 -450 0 0 620 0 620 30 0 c30 0 30 1 30 55 0 51 2 55 24 55
21 0 24 6 30 54 l7 54 50 7 c43 6 49 10 49 31 0 23 3 24 60 24 57 0 60 1 60
25 l0 25 110 0 110 0 0 -25z m340 -9669 c0 -19 -6 -25 -27 -28 l-28 -3 -3
-112 c-3 -113 -3 -113 -27 -113 -24 0 -25 -3 -25 -64 0 -35 -3 -84 -6 -110 -6
-40 -10 -46 -30 -46 -24 0 -24 -1 -24 -115 0 -114 0 -115 -24 -115 -28 0 -36
-32 -36 -147 0 -71 -1 -73 -25 -73 -24 0 -25 -2 -25 -69 0 -37 -3 -89 -6 -115
-6 -40 -10 -46 -30 -46 -24 0 -24 -1 -24 -110 0 -109 0 -110 -24 -110 -20 0
-24 -6 -30 -46 -3 -26 -6 -64 -6 -85 l0 -39 -50 0 -50 0 0 39 c0 21 -3 59 -6
85 -6 40 -10 46 -30 46 -24 0 -24 1 -24 110 0 109 0 110 -24 110 -20 0 -24 6
-30 46 -3 26 -6 78 -6 115 0 67 -1 69 -25 69 -24 0 -25 2 -25 73 0 115 -8 147
-36 147 -24 0 -24 1 -24 115 0 115 0 115 -24 115 -24 0 -24 2 -31 110 -7 107
-8 110 -31 110 -23 0 -23 2 -26 113 l-3 112 -27 3 c-22 3 -28 9 -28 28 l0 24
450 0 450 0 0 -24z"/>
<path d="M4867 15253 c-4 -3 -7 -105 -7 -225 l0 -218 340 0 340 0 0 -900 0
-900 225 0 225 0 0 900 0 900 340 0 340 0 -2 223 -3 222 -896 3 c-492 1 -899
-1 -902 -5z"/>
<path d="M7258 15253 c-22 -3 -28 -10 -28 -29 0 -20 -5 -24 -30 -24 -27 0 -30
-3 -30 -30 0 -25 -4 -30 -24 -30 -22 0 -23 -4 -29 -82 -4 -46 -7 -463 -7 -928
0 -465 3 -882 7 -927 6 -79 7 -83 29 -83 20 0 24 -5 24 -30 0 -27 3 -30 30
-30 25 0 30 -4 30 -25 l0 -25 620 0 620 0 -2 223 -3 222 -447 3 -448 2 0 225
0 225 450 0 450 0 -2 223 -3 222 -447 3 -448 2 0 225 0 225 450 0 450 0 -2
223 -3 222 -590 1 c-324 1 -602 -1 -617 -3z"/>
<path d="M9058 15253 c-22 -3 -28 -10 -28 -29 0 -20 -5 -24 -30 -24 -27 0 -30
-3 -30 -30 0 -25 -4 -30 -24 -30 -22 0 -23 -4 -29 -82 -4 -46 -7 -261 -7 -478
0 -217 3 -432 7 -477 6 -79 7 -83 29 -83 20 0 24 -5 24 -30 0 -27 3 -30 30
-30 25 0 30 -4 30 -25 l0 -25 505 0 505 0 0 -225 0 -225 -562 -2 -563 -3 -3
-222 -2 -223 735 0 735 0 0 25 c0 20 5 25 25 25 21 0 25 5 25 30 0 27 3 30 30
30 l30 0 0 559 0 560 -27 3 c-22 2 -29 9 -31 31 -3 21 -9 27 -28 27 -19 0 -24
5 -24 24 0 20 -6 24 -46 30 -26 3 -253 6 -505 6 l-459 0 0 225 0 225 560 0
560 0 0 225 0 225 -702 -1 c-387 -1 -715 -4 -730 -6z"/>
<path d="M10940 15035 l0 -225 335 0 335 0 0 -900 0 -900 230 0 230 0 0 900 0
900 335 0 335 0 0 225 0 225 -900 0 -900 0 0 -225z"/>
<path d="M31290 13191 c-8 -5 -31 -16 -50 -26 -39 -21 -75 -58 -106 -113 l-21
-37 -2024 -5 -2024 -5 -48 -24 c-72 -36 -109 -95 -115 -186 -5 -85 12 -131 69
-185 62 -58 79 -60 498 -60 209 0 386 -3 395 -6 14 -6 16 -105 16 -1024 l0
-1018 -26 -23 c-81 -75 -112 -130 -121 -215 -9 -80 27 -171 95 -242 9 -10 12
-81 12 -280 0 -147 4 -273 9 -280 4 -8 19 -12 32 -10 l24 3 3 173 c2 133 6
177 17 188 17 18 23 18 41 0 11 -12 14 -59 14 -249 0 -130 3 -242 6 -251 4 -9
18 -16 34 -16 16 0 30 7 34 16 3 9 6 103 6 209 0 169 2 194 16 199 32 12 44
-13 44 -94 0 -86 12 -107 55 -96 l25 6 0 239 c0 230 1 239 21 257 12 10 34 42
50 69 25 44 29 60 29 133 0 99 -16 138 -90 212 l-50 50 0 1019 c0 920 2 1019
16 1025 29 11 992 7 999 -4 6 -9 -7 -64 -35 -150 -37 -114 -90 -341 -90 -388
0 -17 -4 -34 -10 -37 -5 -3 -10 -26 -10 -50 0 -24 -4 -66 -10 -92 -22 -108
-32 -231 -56 -700 l-7 -143 2426 0 2427 0 0 98 c0 233 -49 741 -95 967 -9 44
-20 100 -24 125 -5 25 -17 72 -26 105 -10 33 -19 71 -22 85 -2 14 -8 34 -13
45 -5 11 -16 44 -25 74 -15 45 -15 55 -4 62 8 5 479 9 1048 9 755 0 1044 3
1072 12 40 12 119 76 119 96 0 7 4 12 9 12 18 0 31 109 19 163 -7 29 -15 54
-18 57 -3 3 -13 17 -23 32 -9 15 -38 40 -64 55 l-48 28 -2029 5 -2029 5 -22
42 c-30 55 -65 89 -124 118 -40 21 -63 25 -127 24 -44 0 -86 -4 -94 -8z"/>
<path d="M5458 11653 c-22 -3 -28 -10 -28 -29 0 -20 -5 -24 -30 -24 -27 0 -30
-3 -30 -30 0 -25 -4 -30 -24 -30 -22 0 -23 -4 -29 -82 -4 -46 -7 -564 -7
-1153 0 -588 3 -1107 7 -1152 6 -79 7 -83 29 -83 20 0 24 -5 24 -30 0 -27 3
-30 30 -30 25 0 30 -4 30 -25 l0 -25 1235 0 1235 0 0 25 c0 21 5 25 30 25 27
0 30 3 30 30 0 25 4 30 24 30 24 0 24 2 31 113 3 61 5 238 3 392 l-3 280 -227
3 -228 2 0 -225 0 -225 -895 0 -895 0 0 895 0 895 673 2 672 3 0 225 0 225
-815 1 c-448 1 -827 -1 -842 -3z"/>
<path d="M8917 11653 c-4 -3 -7 -105 -7 -225 l0 -218 1690 0 1690 0 0 225 0
225 -1683 0 c-926 0 -1687 -3 -1690 -7z"/>
<path d="M8020 11515 c0 -21 -5 -25 -30 -25 -27 0 -30 -3 -30 -30 0 -27 -3
-30 -30 -30 -27 0 -30 -3 -30 -30 0 -25 -4 -30 -24 -30 -21 0 -25 -6 -31 -49
l-7 -49 -48 -7 -49 -7 -7 -54 c-6 -51 -8 -54 -35 -54 -24 0 -29 -4 -29 -25 0
-20 -5 -25 -25 -25 -21 0 -25 -5 -25 -30 0 -27 -3 -30 -30 -30 -27 0 -30 -3
-30 -30 0 -25 -4 -30 -24 -30 -19 0 -25 -6 -28 -27 -2 -22 -9 -29 -30 -31 -24
-3 -28 -8 -28 -33 0 -24 -4 -29 -24 -29 -21 0 -25 -6 -31 -50 -6 -44 -10 -50
-31 -50 -20 0 -24 -5 -24 -30 0 -27 -3 -30 -30 -30 -25 0 -30 -4 -30 -25 0
-20 -5 -25 -25 -25 -21 0 -25 -5 -25 -30 0 -27 -3 -30 -30 -30 -27 0 -30 -3
-30 -30 0 -25 -4 -30 -24 -30 -19 0 -25 -6 -28 -27 -2 -22 -9 -29 -29 -31 -24
-3 -27 -9 -33 -53 -6 -44 -9 -49 -31 -49 -21 0 -25 -5 -25 -29 0 -25 -4 -30
-27 -33 -22 -2 -29 -9 -31 -30 -3 -22 -9 -28 -28 -28 -19 0 -24 -5 -24 -25 0
-20 -5 -25 -25 -25 -20 0 -25 5 -25 25 0 21 -5 25 -30 25 -27 0 -30 3 -30 30
0 25 -4 30 -24 30 -19 0 -25 6 -28 28 -2 21 -9 28 -30 30 -22 3 -28 9 -28 28
0 20 -5 24 -30 24 -27 0 -30 3 -30 30 0 25 -4 30 -24 30 -19 0 -25 6 -28 28
-2 21 -9 28 -30 30 -22 3 -28 9 -28 28 0 20 -5 24 -30 24 -27 0 -30 3 -30 30
0 25 -4 30 -25 30 -20 0 -25 5 -25 25 0 21 -5 25 -29 25 -25 0 -30 -4 -33 -27
-2 -22 -9 -29 -30 -31 -22 -3 -28 -9 -28 -28 0 -19 -5 -24 -24 -24 -19 0 -25
-6 -28 -27 -2 -22 -9 -29 -30 -31 -21 -3 -27 -9 -30 -30 -2 -21 -9 -28 -30
-30 -22 -3 -28 -9 -28 -28 0 -19 -5 -24 -25 -24 -21 0 -25 -5 -25 -30 0 -25 4
-30 25 -30 21 0 25 -5 25 -30 0 -25 4 -30 25 -30 20 0 25 -5 25 -25 0 -21 5
-25 30 -25 27 0 30 -3 30 -30 0 -27 3 -30 30 -30 27 0 30 -3 30 -30 0 -25 4
-30 25 -30 20 0 25 -5 25 -25 0 -21 5 -25 30 -25 27 0 30 -3 30 -30 0 -27 3
-30 30 -30 27 0 30 -3 30 -30 0 -25 4 -30 25 -30 20 0 25 -5 25 -25 0 -21 5
-25 30 -25 27 0 30 -3 30 -30 0 -25 4 -30 25 -30 20 0 25 -5 25 -25 0 -21 5
-25 30 -25 27 0 30 -3 30 -30 0 -27 3 -30 30 -30 27 0 30 -3 30 -30 0 -25 4
-30 24 -30 18 0 25 -6 28 -22 3 -22 6 -23 118 -23 112 0 115 1 118 23 3 16 10
22 28 22 20 0 24 5 24 30 0 27 3 30 30 30 27 0 30 3 30 30 0 25 4 30 25 30 20
0 25 5 25 24 0 19 6 25 28 28 21 2 28 9 30 31 3 21 9 27 28 27 20 0 24 5 24
30 0 27 3 30 30 30 27 0 30 3 30 30 0 25 4 30 24 30 21 0 25 6 31 49 6 44 10
50 33 53 21 2 28 9 30 31 3 21 9 27 28 27 20 0 24 5 24 30 0 27 3 30 30 30 27
0 30 3 30 30 0 25 4 30 25 30 20 0 25 5 25 24 0 19 6 25 28 28 21 2 28 9 30
31 3 21 9 27 27 27 21 0 24 6 30 55 7 49 10 55 31 55 20 0 24 5 24 30 0 27 3
30 30 30 27 0 30 3 30 30 0 25 4 30 25 30 20 0 25 5 25 25 0 20 5 25 24 25 22
0 25 5 31 55 7 52 9 55 36 55 26 0 29 4 29 30 0 25 4 30 25 30 20 0 25 5 25
24 0 19 6 25 28 28 21 2 28 9 30 31 3 21 9 27 28 27 20 0 24 5 24 30 0 27 3
30 30 30 27 0 30 3 30 30 0 25 4 30 24 30 21 0 25 6 31 50 6 44 10 50 31 50
20 0 24 5 24 30 0 27 3 30 30 30 27 0 30 3 30 30 0 27 -3 30 -30 30 -25 0 -30
4 -30 24 0 19 -6 25 -27 28 -22 2 -29 9 -31 30 -3 23 -9 27 -53 33 -43 6 -49
10 -49 31 0 20 -5 24 -30 24 -25 0 -30 4 -30 25 0 24 -3 25 -55 25 -52 0 -55
-1 -55 -25z"/>
<path d="M8912 10308 l3 -223 1688 -3 1687 -2 0 225 0 225 -1690 0 -1690 0 2
-222z"/>
<path d="M44739 10481 c-23 -18 -24 -25 -27 -170 l-3 -151 -1963 0 -1963 0
-27 -21 c-34 -27 -37 -86 -5 -115 21 -19 70 -19 1990 -22 l1969 -2 0 -136 c0
-161 11 -193 67 -194 12 0 165 83 340 184 340 196 354 208 321 258 -9 13 -60
48 -114 79 -55 31 -198 114 -318 183 -121 69 -225 126 -232 126 -6 0 -22 -9
-35 -19z"/>
<path d="M21529 10473 c-10 -11 -15 -57 -17 -165 l-3 -148 -1954 0 c-1411 0
-1961 -3 -1978 -11 -52 -24 -59 -87 -15 -129 22 -20 27 -20 1985 -20 l1963 0
0 -137 c0 -250 -7 -250 406 -12 214 124 320 190 327 206 21 47 1 63 -326 251
-322 186 -358 201 -388 165z"/>
<path d="M29980 10008 c-41 -10 -85 -22 -97 -25 -13 -3 -23 -9 -23 -14 0 -5
-6 -9 -14 -9 -18 0 -76 -32 -76 -42 0 -5 -6 -8 -12 -8 -33 -1 -218 -220 -218
-257 0 -7 -4 -13 -10 -13 -5 0 -10 -7 -10 -16 0 -9 -6 -37 -14 -63 -40 -129
-45 -195 -21 -308 20 -96 40 -148 91 -228 45 -72 117 -149 177 -187 29 -18 54
-35 57 -38 7 -8 124 -55 180 -71 67 -21 2723 -21 2790 0 55 16 173 63 180 70
3 3 34 25 70 49 65 44 143 132 184 208 12 22 24 40 29 42 4 2 7 14 7 26 0 12
4 26 9 31 14 16 41 154 41 213 0 62 -29 215 -42 220 -4 2 -8 14 -8 27 0 13 -3
25 -7 27 -5 2 -17 21 -28 43 -20 41 -72 111 -110 149 -46 44 -85 76 -95 76 -5
0 -10 3 -10 8 0 10 -58 42 -76 42 -8 0 -14 5 -14 10 0 6 -9 10 -20 10 -11 0
-28 4 -38 10 -9 5 -45 16 -80 25 -56 13 -230 15 -1390 14 -1281 -1 -1330 -2
-1402 -21z m225 -217 c88 -13 163 -51 229 -117 29 -29 56 -65 56 -74 0 -6 4
-10 9 -10 20 0 61 -151 61 -222 0 -106 -49 -218 -130 -298 -73 -72 -133 -102
-241 -119 -48 -8 -83 -8 -120 -1 -64 13 -179 59 -179 71 0 5 -5 9 -11 9 -19 0
-119 116 -119 138 0 6 -3 12 -7 14 -20 8 -43 111 -43 191 0 94 16 155 58 221
31 49 130 146 149 146 7 0 13 4 13 9 0 4 24 15 53 24 86 26 136 30 222 18z
m2588 -18 c26 -9 47 -21 47 -25 0 -4 6 -8 14 -8 19 0 142 -121 151 -149 3 -11
11 -21 16 -21 5 0 9 -9 9 -19 0 -11 4 -22 9 -25 4 -3 14 -39 21 -80 12 -73 3
-180 -19 -224 -5 -10 -17 -34 -27 -54 -10 -21 -22 -38 -26 -38 -5 0 -8 -5 -8
-11 0 -15 -74 -89 -89 -89 -6 0 -11 -4 -11 -8 0 -14 -111 -59 -174 -71 -117
-22 -270 26 -360 112 -25 24 -46 48 -46 54 0 6 -4 13 -8 15 -21 8 -61 100 -72
166 -11 58 -11 85 0 147 7 42 17 78 21 81 5 3 9 14 9 25 0 10 4 19 9 19 5 0
12 9 16 19 7 24 99 121 140 148 32 21 110 49 160 57 52 8 168 -4 218 -21z"/>
<path d="M8917 9403 c-4 -3 -7 -105 -7 -225 l0 -218 1690 0 1690 0 0 225 0
225 -1683 0 c-926 0 -1687 -3 -1690 -7z"/>
<path d="M28395 9182 c-43 -9 -44 -18 -45 -424 0 -375 1 -389 20 -408 11 -11
27 -20 36 -20 19 0 56 19 66 34 11 16 10 760 -1 789 -10 25 -40 36 -76 29z"/>
<path d="M34329 9179 c-15 -6 -30 -20 -33 -32 -7 -29 -8 -745 0 -774 9 -32 55
-48 91 -31 l28 13 3 398 c2 421 3 417 -43 430 -11 3 -32 1 -46 -4z"/>
<path d="M30486 8163 c-61 -16 -79 -27 -130 -80 -45 -46 -56 -61 -56 -76 0 -7
-5 -18 -11 -24 -16 -16 -17 -159 -1 -175 6 -6 12 -20 12 -30 0 -10 5 -18 10
-18 6 0 10 -6 10 -12 1 -26 94 -108 122 -108 8 0 19 -5 24 -10 7 -7 317 -10
919 -10 602 0 912 3 919 10 5 5 17 10 26 10 31 0 128 93 137 130 3 14 11 31
17 39 14 17 12 159 -3 174 -6 6 -11 17 -11 24 0 34 -96 126 -160 153 -54 23
-1738 26 -1824 3z"/>
<path d="M5458 7603 c-22 -3 -28 -10 -28 -29 0 -20 -5 -24 -30 -24 -27 0 -30
-3 -30 -30 0 -25 -4 -30 -24 -30 -22 0 -23 -4 -29 -82 -4 -46 -7 -564 -7
-1153 0 -588 3 -1107 7 -1152 6 -79 7 -83 29 -83 20 0 24 -5 24 -30 0 -27 3
-30 30 -30 25 0 30 -4 30 -25 l0 -25 1235 0 1235 0 0 25 c0 21 5 25 30 25 27
0 30 3 30 30 0 25 4 30 24 30 24 0 24 2 31 113 3 61 5 238 3 392 l-3 280 -227
3 -228 2 0 -225 0 -225 -895 0 -895 0 0 895 0 895 673 2 672 3 0 225 0 225
-815 1 c-448 1 -827 -1 -842 -3z"/>
<path d="M8917 7603 c-4 -3 -7 -105 -7 -225 l0 -218 1690 0 1690 0 0 225 0
225 -1683 0 c-926 0 -1687 -3 -1690 -7z"/>
<path d="M8020 7465 c0 -21 -5 -25 -30 -25 -27 0 -30 -3 -30 -30 0 -27 -3 -30
-30 -30 -27 0 -30 -3 -30 -30 0 -25 -4 -30 -24 -30 -21 0 -25 -6 -31 -49 l-7
-49 -48 -7 -49 -7 -7 -54 c-6 -51 -8 -54 -35 -54 -24 0 -29 -4 -29 -25 0 -20
-5 -25 -25 -25 -21 0 -25 -5 -25 -30 0 -27 -3 -30 -30 -30 -27 0 -30 -3 -30
-30 0 -25 -4 -30 -24 -30 -19 0 -25 -6 -28 -27 -2 -22 -9 -29 -30 -31 -24 -3
-28 -8 -28 -33 0 -24 -4 -29 -24 -29 -21 0 -25 -6 -31 -50 -6 -44 -10 -50 -31
-50 -20 0 -24 -5 -24 -30 0 -27 -3 -30 -30 -30 -25 0 -30 -4 -30 -25 0 -20 -5
-25 -25 -25 -21 0 -25 -5 -25 -30 0 -27 -3 -30 -30 -30 -27 0 -30 -3 -30 -30
0 -25 -4 -30 -24 -30 -19 0 -25 -6 -28 -27 -2 -22 -9 -29 -29 -31 -24 -3 -27
-9 -33 -53 -6 -44 -9 -49 -31 -49 -21 0 -25 -5 -25 -29 0 -25 -4 -30 -27 -33
-22 -2 -29 -9 -31 -30 -3 -22 -9 -28 -28 -28 -19 0 -24 -5 -24 -25 0 -20 -5
-25 -25 -25 -20 0 -25 5 -25 25 0 21 -5 25 -30 25 -27 0 -30 3 -30 30 0 25 -4
30 -24 30 -19 0 -25 6 -28 28 -2 21 -9 28 -30 30 -22 3 -28 9 -28 28 0 20 -5
24 -30 24 -27 0 -30 3 -30 30 0 25 -4 30 -24 30 -19 0 -25 6 -28 28 -2 21 -9
28 -30 30 -22 3 -28 9 -28 28 0 20 -5 24 -30 24 -27 0 -30 3 -30 30 0 25 -4
30 -25 30 -20 0 -25 5 -25 25 0 21 -5 25 -29 25 -25 0 -30 -4 -33 -27 -2 -22
-9 -29 -30 -31 -22 -3 -28 -9 -28 -28 0 -19 -5 -24 -24 -24 -19 0 -25 -6 -28
-27 -2 -22 -9 -29 -30 -31 -21 -3 -27 -9 -30 -30 -2 -21 -9 -28 -30 -30 -22
-3 -28 -9 -28 -28 0 -19 -5 -24 -25 -24 -21 0 -25 -5 -25 -30 0 -25 4 -30 25
-30 21 0 25 -5 25 -30 0 -25 4 -30 25 -30 20 0 25 -5 25 -25 0 -21 5 -25 30
-25 27 0 30 -3 30 -30 0 -27 3 -30 30 -30 27 0 30 -3 30 -30 0 -25 4 -30 25
-30 20 0 25 -5 25 -25 0 -21 5 -25 30 -25 27 0 30 -3 30 -30 0 -27 3 -30 30
-30 27 0 30 -3 30 -30 0 -25 4 -30 25 -30 20 0 25 -5 25 -25 0 -21 5 -25 30
-25 27 0 30 -3 30 -30 0 -25 4 -30 25 -30 20 0 25 -5 25 -25 0 -21 5 -25 30
-25 27 0 30 -3 30 -30 0 -27 3 -30 30 -30 27 0 30 -3 30 -30 0 -25 4 -30 24
-30 18 0 25 -6 28 -22 3 -22 6 -23 118 -23 112 0 115 1 118 23 3 16 10 22 28
22 20 0 24 5 24 30 0 27 3 30 30 30 27 0 30 3 30 30 0 25 4 30 25 30 20 0 25
5 25 24 0 19 6 25 28 28 21 2 28 9 30 31 3 21 9 27 28 27 20 0 24 5 24 30 0
27 3 30 30 30 27 0 30 3 30 30 0 25 4 30 24 30 21 0 25 6 31 49 6 44 10 50 33
53 21 2 28 9 30 31 3 21 9 27 28 27 20 0 24 5 24 30 0 27 3 30 30 30 27 0 30
3 30 30 0 25 4 30 25 30 20 0 25 5 25 24 0 19 6 25 28 28 21 2 28 9 30 31 3
21 9 27 27 27 21 0 24 6 30 55 7 49 10 55 31 55 20 0 24 5 24 30 0 27 3 30 30
30 27 0 30 3 30 30 0 25 4 30 25 30 20 0 25 5 25 25 0 20 5 25 24 25 22 0 25
5 31 55 7 52 9 55 36 55 26 0 29 4 29 30 0 25 4 30 25 30 20 0 25 5 25 24 0
19 6 25 28 28 21 2 28 9 30 31 3 21 9 27 28 27 20 0 24 5 24 30 0 27 3 30 30
30 27 0 30 3 30 30 0 25 4 30 24 30 21 0 25 6 31 50 6 44 10 50 31 50 20 0 24
5 24 30 0 27 3 30 30 30 27 0 30 3 30 30 0 27 -3 30 -30 30 -25 0 -30 4 -30
24 0 19 -6 25 -27 28 -22 2 -29 9 -31 30 -3 23 -9 27 -53 33 -43 6 -49 10 -49
31 0 20 -5 24 -30 24 -25 0 -30 4 -30 25 0 24 -3 25 -55 25 -52 0 -55 -1 -55
-25z"/>
<path d="M8912 6258 l3 -223 1688 -3 1687 -2 0 225 0 225 -1690 0 -1690 0 2
-222z"/>
<path d="M8917 5353 c-4 -3 -7 -105 -7 -225 l0 -218 1690 0 1690 0 0 225 0
225 -1683 0 c-926 0 -1687 -3 -1690 -7z"/>
</g>
</svg>
